<mxfile host="app.diagrams.net" modified="2021-05-24T13:46:37.413Z" agent="5.0 (Macintosh; Intel Mac OS X 10_15_6) AppleWebKit/605.1.15 (KHTML, like Gecko) Version/14.0.3 Safari/605.1.15" etag="nBPS4rGcPkjXGsM6zkzR" version="14.6.11" type="github">
  <diagram id="2kU3XZ9Ra3S7jbU6tyLB" name="第 1 页">
    <mxGraphModel dx="946" dy="558" grid="1" gridSize="10" guides="1" tooltips="1" connect="1" arrows="1" fold="1" page="1" pageScale="1" pageWidth="827" pageHeight="1169" math="0" shadow="0">
      <root>
        <mxCell id="0" />
        <mxCell id="1" parent="0" />
        <mxCell id="FysmXMqY-ru7HsNfeRT_-4" value="发送命令：&lt;br style=&quot;font-size: 16px;&quot;&gt;set name xiaolin" style="edgeStyle=orthogonalEdgeStyle;rounded=0;orthogonalLoop=1;jettySize=auto;html=1;fontSize=16;" edge="1" parent="1" source="FysmXMqY-ru7HsNfeRT_-2" target="FysmXMqY-ru7HsNfeRT_-3">
          <mxGeometry relative="1" as="geometry" />
        </mxCell>
        <mxCell id="FysmXMqY-ru7HsNfeRT_-2" value="客户端" style="ellipse;whiteSpace=wrap;html=1;aspect=fixed;fontSize=16;fillColor=#cdeb8b;strokeColor=none;" vertex="1" parent="1">
          <mxGeometry x="70" y="230" width="80" height="80" as="geometry" />
        </mxCell>
        <mxCell id="FysmXMqY-ru7HsNfeRT_-6" value="记录日志" style="edgeStyle=orthogonalEdgeStyle;rounded=0;orthogonalLoop=1;jettySize=auto;html=1;fontSize=16;entryX=0;entryY=0.5;entryDx=0;entryDy=0;" edge="1" parent="1" source="FysmXMqY-ru7HsNfeRT_-3" target="FysmXMqY-ru7HsNfeRT_-5">
          <mxGeometry relative="1" as="geometry">
            <mxPoint x="540" y="270" as="targetPoint" />
          </mxGeometry>
        </mxCell>
        <mxCell id="FysmXMqY-ru7HsNfeRT_-3" value="Redis" style="rounded=1;whiteSpace=wrap;html=1;fontSize=16;fillColor=#ffcc99;strokeColor=none;" vertex="1" parent="1">
          <mxGeometry x="320" y="240" width="120" height="60" as="geometry" />
        </mxCell>
        <mxCell id="FysmXMqY-ru7HsNfeRT_-5" value="*3&lt;br&gt;$3&lt;br&gt;set&lt;br&gt;$4&lt;br&gt;name&lt;br&gt;$7&lt;br&gt;xiaolin" style="rounded=0;whiteSpace=wrap;html=1;fontSize=16;align=left;fillColor=#cce5ff;strokeColor=none;" vertex="1" parent="1">
          <mxGeometry x="560" y="200" width="170" height="140" as="geometry" />
        </mxCell>
        <mxCell id="FysmXMqY-ru7HsNfeRT_-7" value="AOF文件" style="text;html=1;align=center;verticalAlign=middle;resizable=0;points=[];autosize=1;strokeColor=none;fontSize=16;" vertex="1" parent="1">
          <mxGeometry x="605" y="350" width="80" height="20" as="geometry" />
        </mxCell>
      </root>
    </mxGraphModel>
  </diagram>
</mxfile>
